<?xml version="1.0" encoding="utf-8"?>
<!-- Generator: Adobe Illustrator 27.5.0, SVG Export Plug-In . SVG Version: 6.00 Build 0)  -->
<svg version="1.1" id="Layer_3" xmlns="http://www.w3.org/2000/svg" xmlns:xlink="http://www.w3.org/1999/xlink" x="0px" y="0px"
	 viewBox="0 0 128 128" style="enable-background:new 0 0 128 128;" xml:space="preserve">
<style type="text/css">
	.st0{clip-path:url(#SVGID_00000121972845024637933070000002597417601946213510_);}
	.st1{fill:#E0E0E0;}
	.st2{fill:#751C00;}
	.st3{fill:#E04E2C;}
	.st4{fill:#BF360C;}
	.st5{fill:#FF7043;}
</style>
<g>
	<defs>
		<rect id="SVGID_1_" y="-0.3" width="128" height="128"/>
	</defs>
	<clipPath id="SVGID_00000011006642730273302220000006291579504938750347_">
		<use xlink:href="#SVGID_1_"  style="overflow:visible;"/>
	</clipPath>
	<g style="clip-path:url(#SVGID_00000011006642730273302220000006291579504938750347_);">
		<path class="st1" d="M188.5,198.4h-249c-5.5,0-9.9-4.5-9.9-9.9v-249c0-5.5,4.5-9.9,9.9-9.9h249c5.5,0,9.9,4.5,9.9,9.9v249
			C198.4,194,194,198.4,188.5,198.4z"/>
		<g>
			<g>
				<g>
					<path class="st2" d="M9.4-39.3h-75.6c-2.4,0-4.3-1.9-4.3-4.3v-19.6c0-2.4,1.9-4.3,4.3-4.3H9.4c2.4,0,4.3,1.9,4.3,4.3v19.5
						C13.7-41.2,11.8-39.3,9.4-39.3z"/>
					<path class="st2" d="M101.8-39.3H26.2c-2.4,0-4.3-1.9-4.3-4.3v-19.6c0-2.4,1.9-4.3,4.3-4.3h75.6c2.4,0,4.3,1.9,4.3,4.3v19.5
						C106.1-41.2,104.2-39.3,101.8-39.3z"/>
					<path class="st2" d="M194.2-39.3h-75.6c-2.4,0-4.3-1.9-4.3-4.3v-19.6c0-2.4,1.9-4.3,4.3-4.3h75.6c2.4,0,4.3,1.9,4.3,4.3v19.5
						C198.4-41.2,196.5-39.3,194.2-39.3z"/>
				</g>
			</g>
			<g>
				<g>
					<path class="st2" d="M9.4,40h-75.6c-2.4,0-4.3-1.9-4.3-4.3V16.2c0-2.4,1.9-4.3,4.3-4.3H9.4c2.4,0,4.3,1.9,4.3,4.3v19.5
						C13.7,38.1,11.8,40,9.4,40z"/>
					<path class="st2" d="M101.8,40H26.2c-2.4,0-4.3-1.9-4.3-4.3V16.2c0-2.4,1.9-4.3,4.3-4.3h75.6c2.4,0,4.3,1.9,4.3,4.3v19.5
						C106.1,38.1,104.2,40,101.8,40z"/>
					<path class="st2" d="M194.2,40h-75.6c-2.4,0-4.3-1.9-4.3-4.3V16.2c0-2.4,1.9-4.3,4.3-4.3h75.6c2.4,0,4.3,1.9,4.3,4.3v19.5
						C198.4,38.1,196.5,40,194.2,40z"/>
				</g>
			</g>
			<g>
				<g>
					<path class="st2" d="M9.4,119.2h-75.6c-2.4,0-4.3-1.9-4.3-4.3V95.4c0-2.4,1.9-4.3,4.3-4.3H9.4c2.4,0,4.3,1.9,4.3,4.3V115
						C13.7,117.3,11.8,119.2,9.4,119.2z"/>
					<path class="st2" d="M101.8,119.2H26.2c-2.4,0-4.3-1.9-4.3-4.3V95.4c0-2.4,1.9-4.3,4.3-4.3h75.6c2.4,0,4.3,1.9,4.3,4.3V115
						C106.1,117.3,104.2,119.2,101.8,119.2z"/>
					<path class="st2" d="M194.2,119.2h-75.6c-2.4,0-4.3-1.9-4.3-4.3V95.4c0-2.4,1.9-4.3,4.3-4.3h75.6c2.4,0,4.3,1.9,4.3,4.3V115
						C198.4,117.3,196.5,119.2,194.2,119.2z"/>
				</g>
			</g>
			<g>
				<g>
					<path class="st2" d="M9.4,198.4h-75.6c-2.4,0-4.3-1.9-4.3-4.3v-19.5c0-2.4,1.9-4.3,4.3-4.3H9.4c2.4,0,4.3,1.9,4.3,4.3v19.5
						C13.7,196.5,11.8,198.4,9.4,198.4z"/>
					<path class="st2" d="M101.8,198.4H26.2c-2.4,0-4.3-1.9-4.3-4.3v-19.5c0-2.4,1.9-4.3,4.3-4.3h75.6c2.4,0,4.3,1.9,4.3,4.3v19.5
						C106.1,196.5,104.2,198.4,101.8,198.4z"/>
					<path class="st2" d="M194.2,198.4h-75.6c-2.4,0-4.3-1.9-4.3-4.3v-19.5c0-2.4,1.9-4.3,4.3-4.3h75.6c2.4,0,4.3,1.9,4.3,4.3v19.5
						C198.4,196.5,196.5,198.4,194.2,198.4z"/>
				</g>
			</g>
			<g>
				<g>
					<path class="st2" d="M-35.7-27.7h-34.8V0.3h34.8c2.4,0,4.3-1.9,4.3-4.3v-19.5C-31.4-25.8-33.3-27.7-35.7-27.7z"/>
					<path class="st2" d="M56,0.3h-75.6c-2.4,0-4.3-1.9-4.3-4.3v-19.5c0-2.4,1.9-4.3,4.3-4.3H56c2.4,0,4.3,1.9,4.3,4.3v19.5
						C60.2-1.6,58.3,0.3,56,0.3z"/>
					<path class="st2" d="M147.6,0.3H72c-2.4,0-4.3-1.9-4.3-4.3v-19.5c0-2.4,1.9-4.3,4.3-4.3h75.6c2.4,0,4.3,1.9,4.3,4.3v19.5
						C151.9-1.6,150,0.3,147.6,0.3z"/>
					<path class="st2" d="M163.7-27.7c-2.4,0-4.3,1.9-4.3,4.3v19.5c0,2.4,1.9,4.3,4.3,4.3h34.8v-28.1H163.7z"/>
				</g>
			</g>
			<g>
				<g>
					<path class="st2" d="M-35.7,51.5h-34.8v28.1h34.8c2.4,0,4.3-1.9,4.3-4.3V55.8C-31.4,53.4-33.3,51.5-35.7,51.5z"/>
					<path class="st2" d="M56,79.6h-75.6c-2.4,0-4.3-1.9-4.3-4.3V55.8c0-2.4,1.9-4.3,4.3-4.3H56c2.4,0,4.3,1.9,4.3,4.3v19.5
						C60.2,77.7,58.3,79.6,56,79.6z"/>
					<path class="st2" d="M147.6,79.6H72c-2.4,0-4.3-1.9-4.3-4.3V55.8c0-2.4,1.9-4.3,4.3-4.3h75.6c2.4,0,4.3,1.9,4.3,4.3v19.5
						C151.9,77.7,150,79.6,147.6,79.6z"/>
					<path class="st2" d="M163.7,51.5c-2.4,0-4.3,1.9-4.3,4.3v19.5c0,2.4,1.9,4.3,4.3,4.3h34.8V51.5H163.7z"/>
				</g>
			</g>
			<g>
				<g>
					<path class="st2" d="M-35.7,130.7h-34.8v28.1h34.8c2.4,0,4.3-1.9,4.3-4.3V135C-31.4,132.7-33.3,130.7-35.7,130.7z"/>
					<path class="st2" d="M56,158.8h-75.6c-2.4,0-4.3-1.9-4.3-4.3V135c0-2.4,1.9-4.3,4.3-4.3H56c2.4,0,4.3,1.9,4.3,4.3v19.5
						C60.2,156.9,58.3,158.8,56,158.8z"/>
					<path class="st2" d="M147.6,158.8H72c-2.4,0-4.3-1.9-4.3-4.3V135c0-2.4,1.9-4.3,4.3-4.3h75.6c2.4,0,4.3,1.9,4.3,4.3v19.5
						C151.9,156.9,150,158.8,147.6,158.8z"/>
					<path class="st2" d="M163.7,130.7c-2.4,0-4.3,1.9-4.3,4.3v19.5c0,2.4,1.9,4.3,4.3,4.3h34.8v-28.1H163.7z"/>
				</g>
			</g>
		</g>
		<g>
			<g>
				<g>
					<path class="st3" d="M9.4-42.4h-75.6c-2.4,0-4.3-1.9-4.3-4.3v-19.6c0-2.4,1.9-4.3,4.3-4.3H9.4c2.4,0,4.3,1.9,4.3,4.3v19.5
						C13.7-44.3,11.8-42.4,9.4-42.4z"/>
					<path class="st4" d="M101.8-42.4H26.2c-2.4,0-4.3-1.9-4.3-4.3v-19.6c0-2.4,1.9-4.3,4.3-4.3h75.6c2.4,0,4.3,1.9,4.3,4.3v19.5
						C106.1-44.3,104.2-42.4,101.8-42.4z"/>
					<path class="st3" d="M194.2-42.4h-75.6c-2.4,0-4.3-1.9-4.3-4.3v-19.6c0-2.4,1.9-4.3,4.3-4.3h75.6c2.4,0,4.3,1.9,4.3,4.3v19.5
						C198.4-44.3,196.5-42.4,194.2-42.4z"/>
				</g>
			</g>
			<g>
				<g>
					<path class="st3" d="M9.4,36.9h-75.6c-2.4,0-4.3-1.9-4.3-4.3V13.1c0-2.4,1.9-4.3,4.3-4.3H9.4c2.4,0,4.3,1.9,4.3,4.3v19.5
						C13.7,35,11.8,36.9,9.4,36.9z"/>
					<path class="st3" d="M101.8,36.9H26.2c-2.4,0-4.3-1.9-4.3-4.3V13.1c0-2.4,1.9-4.3,4.3-4.3h75.6c2.4,0,4.3,1.9,4.3,4.3v19.5
						C106.1,35,104.2,36.9,101.8,36.9z"/>
					<path class="st4" d="M194.2,36.9h-75.6c-2.4,0-4.3-1.9-4.3-4.3V13.1c0-2.4,1.9-4.3,4.3-4.3h75.6c2.4,0,4.3,1.9,4.3,4.3v19.5
						C198.4,35,196.5,36.9,194.2,36.9z"/>
				</g>
			</g>
			<g>
				<g>
					<path class="st3" d="M9.4,116.1h-75.6c-2.4,0-4.3-1.9-4.3-4.3V92.3c0-2.4,1.9-4.3,4.3-4.3H9.4c2.4,0,4.3,1.9,4.3,4.3v19.5
						C13.7,114.2,11.8,116.1,9.4,116.1z"/>
					<path class="st4" d="M101.8,116.1H26.2c-2.4,0-4.3-1.9-4.3-4.3V92.3c0-2.4,1.9-4.3,4.3-4.3h75.6c2.4,0,4.3,1.9,4.3,4.3v19.5
						C106.1,114.2,104.2,116.1,101.8,116.1z"/>
					<path class="st3" d="M194.2,116.1h-75.6c-2.4,0-4.3-1.9-4.3-4.3V92.3c0-2.4,1.9-4.3,4.3-4.3h75.6c2.4,0,4.3,1.9,4.3,4.3v19.5
						C198.4,114.2,196.5,116.1,194.2,116.1z"/>
				</g>
			</g>
			<g>
				<g>
					<path class="st3" d="M9.4,195.3h-75.6c-2.4,0-4.3-1.9-4.3-4.3v-19.5c0-2.4,1.9-4.3,4.3-4.3H9.4c2.4,0,4.3,1.9,4.3,4.3v19.5
						C13.7,193.4,11.8,195.3,9.4,195.3z"/>
					<path class="st3" d="M101.8,195.3H26.2c-2.4,0-4.3-1.9-4.3-4.3v-19.5c0-2.4,1.9-4.3,4.3-4.3h75.6c2.4,0,4.3,1.9,4.3,4.3v19.5
						C106.1,193.4,104.2,195.3,101.8,195.3z"/>
					<path class="st4" d="M194.2,195.3h-75.6c-2.4,0-4.3-1.9-4.3-4.3v-19.5c0-2.4,1.9-4.3,4.3-4.3h75.6c2.4,0,4.3,1.9,4.3,4.3v19.5
						C198.4,193.4,196.5,195.3,194.2,195.3z"/>
				</g>
			</g>
			<g>
				<g>
					<path class="st4" d="M-35.7-30.8h-34.8v28.1h34.8c2.4,0,4.3-1.9,4.3-4.3v-19.5C-31.4-28.9-33.3-30.8-35.7-30.8z"/>
					<path class="st3" d="M56-2.7h-75.6c-2.4,0-4.3-1.9-4.3-4.3v-19.5c0-2.4,1.9-4.3,4.3-4.3H56c2.4,0,4.3,1.9,4.3,4.3V-7
						C60.2-4.7,58.3-2.7,56-2.7z"/>
					<path class="st5" d="M147.6-2.7H72c-2.4,0-4.3-1.9-4.3-4.3v-19.5c0-2.4,1.9-4.3,4.3-4.3h75.6c2.4,0,4.3,1.9,4.3,4.3V-7
						C151.9-4.7,150-2.7,147.6-2.7z"/>
					<path class="st3" d="M163.7-30.8c-2.4,0-4.3,1.9-4.3,4.3V-7c0,2.4,1.9,4.3,4.3,4.3h34.8v-28.1H163.7z"/>
				</g>
			</g>
			<g>
				<g>
					<path class="st3" d="M-35.7,48.4h-34.8v28.1h34.8c2.4,0,4.3-1.9,4.3-4.3V52.7C-31.4,50.3-33.3,48.4-35.7,48.4z"/>
					<path class="st5" d="M56,76.5h-75.6c-2.4,0-4.3-1.9-4.3-4.3V52.7c0-2.4,1.9-4.3,4.3-4.3H56c2.4,0,4.3,1.9,4.3,4.3v19.5
						C60.2,74.6,58.3,76.5,56,76.5z"/>
					<path class="st3" d="M147.6,76.5H72c-2.4,0-4.3-1.9-4.3-4.3V52.7c0-2.4,1.9-4.3,4.3-4.3h75.6c2.4,0,4.3,1.9,4.3,4.3v19.5
						C151.9,74.6,150,76.5,147.6,76.5z"/>
					<path class="st3" d="M163.7,48.4c-2.4,0-4.3,1.9-4.3,4.3v19.5c0,2.4,1.9,4.3,4.3,4.3h34.8V48.4H163.7z"/>
				</g>
			</g>
			<g>
				<g>
					<path class="st4" d="M-35.7,127.7h-34.8v28.1h34.8c2.4,0,4.3-1.9,4.3-4.3v-19.5C-31.4,129.6-33.3,127.7-35.7,127.7z"/>
					<path class="st3" d="M56,155.7h-75.6c-2.4,0-4.3-1.9-4.3-4.3v-19.5c0-2.4,1.9-4.3,4.3-4.3H56c2.4,0,4.3,1.9,4.3,4.3v19.5
						C60.2,153.8,58.3,155.7,56,155.7z"/>
					<path class="st3" d="M147.6,155.7H72c-2.4,0-4.3-1.9-4.3-4.3v-19.5c0-2.4,1.9-4.3,4.3-4.3h75.6c2.4,0,4.3,1.9,4.3,4.3v19.5
						C151.9,153.8,150,155.7,147.6,155.7z"/>
					<path class="st5" d="M163.7,127.7c-2.4,0-4.3,1.9-4.3,4.3v19.5c0,2.4,1.9,4.3,4.3,4.3h34.8v-28.1H163.7z"/>
				</g>
			</g>
		</g>
	</g>
</g>
</svg>
